<svg width="64" height="64" viewBox="0 0 64 64" fill="none" xmlns="http://www.w3.org/2000/svg">
  <!-- Background circle -->
  <circle cx="32" cy="32" r="30" fill="#0F172A"></circle>

  <!-- Image frame -->
  <rect x="14" y="18" width="30" height="24" rx="4" fill="#020617" stroke="#38BDF8" stroke-width="2"></rect>

  <!-- Sun -->
  <circle cx="22" cy="24" r="3" fill="#FACC15"></circle>

  <!-- Mountains -->
  <path d="M18 38L24.5 30L30 36L34 32L40 38H18Z" fill="#22C55E"></path>

  <!-- AI chip (top-right) -->
  <rect x="36" y="16" width="14" height="14" rx="3" fill="#1D2433" stroke="#A855F7" stroke-width="2"></rect>

  <!-- Chip pins -->
  <line x1="43" y1="12" x2="43" y2="16" stroke="#A855F7" stroke-width="1.5"></line>
  <line x1="43" y1="30" x2="43" y2="34" stroke="#A855F7" stroke-width="1.5"></line>
  <line x1="34" y1="23" x2="36" y2="23" stroke="#A855F7" stroke-width="1.5"></line>
  <line x1="50" y1="23" x2="52" y2="23" stroke="#A855F7" stroke-width="1.5"></line>

  <!-- "AI" text inside chip -->
  <text x="43" y="25" text-anchor="middle" dominant-baseline="middle" font-size="7" font-family="system-ui, -apple-system, BlinkMacSystemFont, 'Segoe UI', sans-serif" fill="#E5E7EB" font-weight="600">
    AI
  </text>

  <!-- Magic sparkle to show 'generation' -->
  <path d="M28 16L29.2 18.8L32 20L29.2 21.2L28 24L26.8 21.2L24 20L26.8 18.8L28 16Z" fill="#F97316"></path>
</svg>
